#!OML:ASF F:\twosubjects\two\Thursday\Session 1\justin.ASF
:FULLY-SPECIFIED
:DEGREES
337
root 8.88002 18.8284 -24.0959 -2.17902 -78.3168 5.89367
lowerback -1.85545 0.637319 -2.78759
upperback -3.51561 0.826536 0.915606
thorax -2.62794 0.479443 2.50074
lowerneck -23.4137 4.20375 -3.85203
upperneck 25.1447 4.88023 8.09757
head 11.7935 2.87213 4.49297
rclavicle 3.42655e-014 7.15625e-015
rhumerus -2.39933 -43.9358 10.9916
rradius 43.0633
rwrist -18.7631
rhand -19.3279 11.9442
rfingers 7.12502
rthumb 6.98866 -17.9204
lclavicle 3.42655e-014 7.15625e-015
lhumerus 11.9585 38.2056 0.284994
lradius 47.622
lwrist 2.8922
lhand -3.8374 41.2598
lfingers 7.12502
lthumb 21.9101 70.0391
rfemur -6.43335 7.80785 3.45167
rtibia 31.1973
rfoot -3.24901 -9.17457
rtoes -23.9163
lfemur -9.05439 -6.17393 0.94223
ltibia 22.6494
lfoot 6.12716 -7.42292
ltoes -31.3771
338
root 8.90587 18.9824 -24.1122 -2.44304 -78.1541 6.12343
lowerback -1.52286 0.614835 -3.12119
upperback -3.41138 0.796086 1.12775
thorax -2.71502 0.477744 2.90439
lowerneck -20.765 3.96195 -2.30586
upperneck 22.0092 4.96615 4.78534
head 10.272 2.64748 2.80665
rclavicle -1.68967e-014 1.55052e-014
rhumerus -4.37836 -43.1071 11.3989
rradius 40.8369
rwrist -18.9396
rhand -18.348 12.1996
rfingers 7.12502
rthumb 7.93449 -17.6315
lclavicle -1.68967e-014 1.55052e-014
lhumerus 9.78928 37.2889 0.571123
lradius 45.9754
lwrist 4.56427
lhand -3.43547 42.304
lfingers 7.12502
lthumb 22.296 71.0377
rfemur -6.87937 7.0716 4.18617
rtibia 31.8104
rfoot -4.24554 -10.9869
rtoes -23.2121
lfemur -9.72655 -5.14271 0.133548
ltibia 23.9827
lfoot 5.1955 -6.77928
ltoes -28.4177
339
root 8.93374 19.121 -24.1281 -3.56818 -77.9426 7.12357
lowerback -1.07197 0.522234 -3.52659
upperback -3.24175 0.666538 1.25685
thorax -2.79233 0.42669 3.26421
lowerneck -22.8813 4.10696 -4.0909
upperneck 24.2314 5.20003 6.93627
head 11.3485 2.85094 4.07743
rclavicle -2.25372e-014 -4.37326e-015
rhumerus -6.09962 -42.488 11.3652
rradius 38.8864
rwrist -19.0266
rhand -16.997 11.0404
rfingers 7.12502
rthumb 9.23823 -18.7372
lclavicle -2.25372e-014 -4.37326e-015
lhumerus 7.0387 35.7507 0.108436
lradius 44.5897
lwrist 7.00254
lhand -3.11166 43.8598
lfingers 7.12502
lthumb 22.6068 72.556
rfemur -7.21716 6.23025 4.74698
rtibia 32.4403
rfoot -5.18592 -12.5747
rtoes -22.0474
lfemur -10.3476 -4.56554 -0.83336
ltibia 25.4152
lfoot 4.5641 -6.0471
ltoes -22.9217
340
root 8.95602 19.2453 -24.1414 -5.08822 -77.7939 8.3968
lowerback -0.505446 0.397284 -3.6869
upperback -3.0909 0.483334 1.15076
thorax -2.9409 0.340634 3.2445
lowerneck -23.4016 4.26465 -4.53653
upperneck 24.6904 5.45683 7.41677
head 11.5702 2.98496 4.41152
rclavicle 1.47349e-014 -3.18055e-015
rhumerus -7.72622 -42.1241 10.7253
rradius 37.3904
rwrist -19.0576
rhand -15.0912 7.93576
rfingers 7.12502
rthumb 11.0768 -21.7519
lclavicle 1.47349e-014 -3.18055e-015
lhumerus 4.78959 34.8045 0.0500167
lradius 43.4962
lwrist 8.45769
lhand -2.17811 45.4789
lfingers 7.12502
lthumb 23.5025 74.0632
rfemur -7.41367 5.289 5.21752
rtibia 33.079
rfoot -5.87697 -13.3106
rtoes -21.0577
lfemur -10.8056 -3.78081 -1.99612
ltibia 26.8096
lfoot 4.00487 -5.8493
ltoes -20.161
341
root 8.97633 19.3629 -24.1552 -4.26034 -77.7827 7.27687
lowerback 0.0257033 0.329297 -3.33913
upperback -2.96491 0.384967 1.14933
thorax -3.09744 0.285204 3.04717
lowerneck -23.3843 4.36836 -4.50201
upperneck 24.6469 5.61672 7.33257
head 11.5421 3.04989 4.39509
rclavicle -8.64713e-015 -1.23246e-014
rhumerus -9.43561 -41.6677 10.0193
rradius 36.0073
rwrist -18.7368
rhand -13.8104 6.07604
rfingers 7.12502
rthumb 12.3119 -23.5415
lclavicle -8.64713e-015 -1.23246e-014
lhumerus 3.17767 34.2727 0.515777
lradius 42.325
lwrist 9.03205
lhand -0.885115 47.0731
lfingers 7.12502
lthumb 24.7423 75.493
rfemur -7.64296 4.17776 6.2704
rtibia 33.6882
rfoot -6.33797 -13.4278
rtoes -20.3806
lfemur -11.2068 -2.82692 -2.61491
ltibia 28.2058
lfoot 3.53505 -5.72111
ltoes -20.4945
342
root 8.99566 19.4817 -24.1659 -3.61806 -77.7417 6.44034
lowerback 0.38736 0.210733 -3.30169
upperback -2.79057 0.226819 1.37494
thorax -3.10978 0.207569 3.26335
lowerneck -23.6684 4.48245 -4.85804
upperneck 24.8439 5.88135 7.47113
head 11.632 3.15245 4.56701
rclavicle 3.13831e-014 1.35174e-014
rhumerus -10.7876 -41.0898 9.20907
rradius 34.8665
rwrist -18.1858
rhand -12.9026 4.30831
rfingers 7.12502
rthumb 13.1871 -25.2546
lclavicle 3.13831e-014 1.35174e-014
lhumerus 1.18353 33.4912 0.952576
lradius 41.0075
lwrist 9.58687
lhand 0.173411 47.9805
lfingers 7.12502
lthumb 25.7565 76.2573
rfemur -7.96104 2.94942 7.2272
rtibia 34.2822
rfoot -6.7589 -12.9639
rtoes -19.3038
lfemur -11.6682 -2.05542 -3.31765
ltibia 29.6567
lfoot 3.03136 -5.69392
ltoes -21.175
343
root 9.01534 19.5799 -24.172 -4.19248 -77.6257 6.845
lowerback 0.693962 -0.0151288 -3.45826
upperback -2.55359 -0.0771096 1.57137
thorax -3.01337 0.0583181 3.5647
lowerneck -24.0756 4.66428 -5.35591
upperneck 24.992 6.31243 7.60075
head 11.706 3.31723 4.78698
rclavicle -6.21202e-015 -2.78299e-015
rhumerus -11.6408 -40.7052 7.95577
rradius 33.9002
rwrist -17.6595
rhand -12.2285 2.56091
rfingers 7.12502
rthumb 13.8368 -26.9589
lclavicle -6.21202e-015 -2.78299e-015
lhumerus -1.42342 32.6303 1.1738
lradius 39.8788
lwrist 9.95004
lhand 0.854832 48.0715
lfingers 7.12502
lthumb 26.4089 76.252
rfemur -8.27774 1.6658 7.85751
rtibia 34.9342
rfoot -6.71119 -12.0108
rtoes -19.451
lfemur -12.1767 -1.26851 -4.29954
ltibia 31.0863
lfoot 2.5977 -6.14026
ltoes -20.0343
344
root 9.04021 19.6478 -24.1772 -3.40436 -77.5758 5.81598
lowerback 1.03351 -0.16121 -3.03411
upperback -2.28515 -0.26484 1.64732
thorax -2.91055 -0.0492858 3.41045
lowerneck -24.3184 4.73438 -5.56305
upperneck 24.8499 6.55127 7.46918
head 11.6752 3.39324 4.80967
rclavicle -1.03741e-014 -6.75868e-015
rhumerus -12.8 -40.5303 6.72885
rradius 32.8993
rwrist -17.2075
rhand -11.9888 1.52397
rfingers 7.12502
rthumb 14.0678 -27.9799
lclavicle -1.03741e-014 -6.75868e-015
lhumerus -3.58462 31.9961 1.61708
lradius 38.8185
lwrist 9.79049
lhand 1.52964 48.2875
lfingers 7.12502
lthumb 27.0547 76.3694
rfemur -8.63903 0.372205 8.83568
rtibia 35.6731
rfoot -6.35746 -11.0205
rtoes -20.9594
lfemur -12.68 -0.372191 -4.83223
ltibia 32.4991
lfoot 2.38035 -6.82474
ltoes -17.2586
345
root 9.06481 19.7167 -24.186 -2.54212 -77.4351 4.88521
lowerback 1.27245 -0.176009 -2.77662
upperback -2.12707 -0.279913 1.71207
thorax -2.8808 -0.0639699 3.33329
lowerneck -24.2605 4.61328 -5.5143
upperneck 24.523 6.4997 7.01662
head 11.5663 3.32097 4.60439
rclavicle -3.32964e-015 1.19271e-015
rhumerus -14.6688 -40.085 6.0698
rradius 32.1749
rwrist -16.8325
rhand -12.4014 0.368696
rfingers 7.12502
rthumb 13.6702 -29.1624
lclavicle -3.32964e-015 1.19271e-015
lhumerus -5.00306 31.4591 2.78666
lradius 37.7369
lwrist 9.28235
lhand 2.27465 48.6641
lfingers 7.12502
lthumb 27.7672 76.6332
rfemur -9.21622 -0.803997 9.7875
rtibia 36.4983
rfoot -6.25418 -9.87087
rtoes -20.746
lfemur -13.3638 0.452282 -5.42134
ltibia 33.9047
lfoot 2.44819 -7.58792
ltoes -13.9994
346
root 9.08483 19.7776 -24.1922 -3.19333 -77.0988 5.74087
lowerback 1.27789 -0.177454 -3.08372
upperback -2.13707 -0.288475 1.78914
thorax -2.89295 -0.0601648 3.58708
lowerneck -23.8089 4.44137 -5.62906
upperneck 24.0758 6.41875 6.55195
head 11.3337 3.2204 4.39495
rclavicle -9.98893e-015 -7.15625e-015
rhumerus -16.7324 -39.5787 5.6898
rradius 31.7332
rwrist -16.259
rhand -11.8404 -0.0889546
rfingers 7.12502
rthumb 14.2108 -29.5828
lclavicle -9.98893e-015 -7.15625e-015
lhumerus -6.11298 31.3033 4.52818
lradius 36.6745
lwrist 7.76686
lhand 3.73986 48.3532
lfingers 7.12502
lthumb 29.1673 76.088
rfemur -9.98246 -2.04652 10.2591
rtibia 37.3746
rfoot -6.2151 -8.53877
rtoes -19.8341
lfemur -14.2973 1.25965 -6.55703
ltibia 35.2554
lfoot 2.3189 -8.58466
ltoes -13.5809
347
root 9.10927 19.8149 -24.1997 -3.08761 -76.7247 5.84924
lowerback 1.25578 -0.208834 -3.15306
upperback -2.1843 -0.33108 1.84951
thorax -2.9254 -0.0780994 3.69069
lowerneck -23.2966 4.31903 -5.96571
upperneck 23.7152 6.35827 6.51024
head 11.095 3.16472 4.38462
rclavicle -2.24751e-014 -1.59028e-015
rhumerus -18.7977 -39.0518 5.09514
rradius 31.5576
rwrist -15.7475
rhand -12.1079 -0.821224
rfingers 7.12502
rthumb 13.953 -30.333
lclavicle -2.24751e-014 -1.59028e-015
lhumerus -7.06021 31.6934 6.17828
lradius 35.4987
lwrist 5.08383
lhand 6.19525 47.2493
lfingers 7.12502
lthumb 31.5093 74.5524
rfemur -10.7545 -3.38941 10.9458
rtibia 38.2406
rfoot -6.1185 -7.47304
rtoes -20.6226
lfemur -15.198 1.76501 -7.44573
ltibia 36.5059
lfoot 2.27907 -9.55851
ltoes -13.3399
348
root 9.13696 19.8392 -24.2088 -2.27067 -76.2287 4.9391
lowerback 1.58076 -0.307683 -2.94662
upperback -2.13853 -0.46343 1.88531
thorax -3.05054 -0.146343 3.61887
lowerneck -23.0848 4.25383 -6.09653
upperneck 23.6414 6.31134 6.47441
head 11.0279 3.1274 4.37321
rclavicle 8.80865e-015 8.74653e-015
rhumerus -20.8292 -37.9455 4.0532
rradius 31.5944
rwrist -16.2943
rhand -13.1935 -1.2465
rfingers 7.12502
rthumb 12.9067 -30.8274
lclavicle 8.80865e-015 8.74653e-015
lhumerus -8.24924 29.9661 7.74419
lradius 34.7466
lwrist 7.03501
lhand 2.02582 49.595
lfingers 7.12502
lthumb 27.5293 77.6023
rfemur -11.2009 -4.64351 11.9454
rtibia 39.0606
rfoot -6.06131 -6.48139
rtoes -22.0768
lfemur -15.7491 1.83648 -7.98975
ltibia 37.6291
lfoot 2.73907 -10.4326
ltoes -12.0159
349
root 9.15333 19.8569 -24.2126 -3.11118 -75.8711 5.76521
lowerback 1.75399 -0.42037 -3.01156
upperback -2.08496 -0.622588 1.71669
thorax -3.08036 -0.225686 3.48861
lowerneck -23.0972 4.30532 -5.94031
upperneck 23.7918 6.35047 6.37976
head 11.0933 3.14146 4.32687
rclavicle -1.71824e-014 1.70955e-014
rhumerus -22.7212 -37.0597 2.62352
rradius 31.7192
rwrist -16.5803
rhand -14.3383 -1.51257
rfingers 7.12502
rthumb 11.8029 -31.16
lclavicle -1.71824e-014 1.70955e-014
lhumerus -9.44463 29.3988 8.99571
lradius 33.8857
lwrist 6.38047
lhand 1.77699 49.5173
lfingers 7.12502
lthumb 27.2913 77.5622
rfemur -11.6452 -5.40535 12.4627
rtibia 39.83
rfoot -6.01469 -5.34265
rtoes -22.9673
lfemur -16.1827 1.96832 -9.01866
ltibia 38.594
lfoot 2.95031 -11.2216
ltoes -13.8984
350
root 9.16182 19.8724 -24.2158 -4.63328 -76.1359 7.63469
lowerback 1.43907 -0.367692 -2.9306
upperback -2.09478 -0.553261 1.22657
thorax -2.92263 -0.201052 2.9291
lowerneck -23.3695 4.4722 -5.65258
upperneck 24.2117 6.38575 6.73272
head 11.2948 3.2201 4.44809
rclavicle -1.39087e-014 7.95139e-015
rhumerus -24.6443 -36.5654 0.872134
rradius 31.7977
rwrist -16.4946
rhand -15.5625 -1.65529
rfingers 7.12502
rthumb 10.6222 -31.3668
lclavicle -1.39087e-014 7.95139e-015
lhumerus -10.2758 29.053 10.1184
lradius 32.9756
lwrist 5.75791
lhand 1.44636 49.7809
lfingers 7.12502
lthumb 26.975 77.8751
rfemur -12.5356 -5.57389 12.7107
rtibia 40.5602
rfoot -6.03087 -3.98217
rtoes -23.3512
lfemur -16.6817 2.36303 -10.2815
ltibia 39.3664
lfoot 2.93684 -11.9384
ltoes -16.4813
351
root 9.17443 19.8789 -24.2129 -5.21023 -76.6402 8.32995
lowerback 1.30688 -0.121946 -3.43407
upperback -2.00155 -0.225521 1.60856
thorax -2.77474 -0.0265374 3.59474
lowerneck -23.5837 4.47403 -6.11931
upperneck 24.5019 6.61033 6.60621
head 11.4148 3.25265 4.5339
rclavicle 1.77602e-014 7.15625e-015
rhumerus -25.8865 -36.1031 -0.10776
rradius 31.8863
rwrist -17.0199
rhand -16.956 -1.6846
rfingers 7.12502
rthumb 9.27779 -31.4605
lclavicle 1.77602e-014 7.15625e-015
lhumerus -11.6173 28.8068 12.3654
lradius 32.3103
lwrist 5.27539
lhand 0.782737 49.7805
lfingers 7.12502
lthumb 26.3399 77.9713
rfemur -13.264 -5.56277 13.2527
rtibia 41.2565
rfoot -6.29857 -2.55286
rtoes -23.9303
lfemur -16.8716 2.54732 -11.1483
ltibia 40.0145
lfoot 3.44108 -12.6295
ltoes -15.4866
